<svg width="36" height="36" viewBox="0 0 36 36" fill="none" xmlns="http://www.w3.org/2000/svg">
<path d="M27.8393 2.25L34.88 9.29075L28.6657 16.3147C27.3292 17.6512 25.6336 17.7246 23.458 17.0336L23.3381 16.9938L21.6169 18.882L31.5948 27.9736L31.7777 28.1634C32.9513 29.4814 32.9058 31.5026 31.6415 32.7669L31.5987 32.8093L31.3787 33.0036C30.0072 34.1143 27.9904 33.9753 26.7874 32.654L17.928 22.9309L9.0419 32.6861L8.93734 32.7957C7.66488 34.0681 5.60182 34.0681 4.32936 32.7957C4.27623 32.7417 4.27623 32.7417 4.2248 32.6861L4.08564 32.5231C3.02248 31.1924 3.1619 29.2466 4.43889 28.0831L14.373 19.0294L12.1938 16.6385L11.9464 16.7438C9.4904 17.7205 6.81612 16.7546 4.78008 14.1327L4.59643 13.8893C1.96417 10.3022 1.44768 6.7812 3.55173 4.67715C5.65617 2.57271 9.17576 3.08899 12.7645 5.72086C15.6566 7.84193 16.6888 10.7146 15.5184 13.308L15.5124 13.3199L18.0754 15.6555L20.1268 13.788L20.0081 13.4122C19.4065 11.4134 19.481 9.83844 20.6648 8.53667L20.8258 8.3681L27.8393 2.25Z" fill="black"/>
<path d="M15.1216 19.8518L17.177 22.1074L15.3477 24.1144L13.01 21.7767L15.1216 19.8518ZM12.0937 6.63623C14.8255 8.63978 15.5232 11.1857 14.2113 13.3585L14.0865 13.555L22.1635 20.9145L19.7897 23.2882L12.4307 15.2108C10.2146 16.6896 7.5762 16.0326 5.51193 13.218C3.15695 10.0087 2.75011 7.08449 4.35474 5.47985C5.96019 3.8744 8.88362 4.28206 12.0937 6.63623ZM27.788 3.7688L28.9813 4.96211L24.6058 9.33761C24.3861 9.55729 24.3861 9.91347 24.6058 10.1332C24.8011 10.3284 25.1042 10.3501 25.3235 10.1982L25.4014 10.1332L29.7769 5.75766L31.3679 7.34875L26.9924 11.7242C26.7728 11.9439 26.7728 12.3001 26.9924 12.5198C27.1877 12.7151 27.4908 12.7368 27.7101 12.5849L27.788 12.5198L32.1635 8.14429L33.3568 9.33761L27.8809 15.5297C26.6997 16.7109 24.9222 16.3778 23.4043 15.8447L23.0147 15.702L20.7972 18.135L18.9005 16.4082L21.4236 14.1109L21.2727 13.7029C20.7567 12.2484 20.408 10.5411 21.4104 9.36293L21.5562 9.20502L27.788 3.7688Z" fill="white"/>
<path fill-rule="evenodd" clip-rule="evenodd" d="M12.1759 22.5353L14.5879 24.9462L8.15208 32.0104C7.31327 32.8492 5.95329 32.8492 5.11448 32.0104L5.04555 31.9382C4.28866 31.1074 4.30554 29.8444 5.055 29.0345L5.18668 28.9038L12.1759 22.5353ZM22.9954 21.6758L30.8397 28.8224C31.6675 29.6502 31.7051 30.9694 30.9518 31.8426L30.8021 32.0006L30.7641 32.0357C29.8983 32.824 28.5789 32.8007 27.7424 32.008L27.6263 31.8895L20.5508 24.1204L22.9954 21.6758Z" fill="#75A8F9"/>
</svg>
