<svg width="36" height="36" viewBox="0 0 36 36" fill="none" xmlns="http://www.w3.org/2000/svg">
<path fill-rule="evenodd" clip-rule="evenodd" d="M25 9C23.3431 9 22 10.3431 22 12V23C22 24.6569 23.3431 26 25 26H26C27.6569 26 29 24.6569 29 23H30C31.1046 23 32 22.1046 32 21V14C32 12.8954 31.1046 12 30 12H29C29 10.3431 27.6569 9 26 9H25Z" fill="#DBE3E8"/>
<path fill-rule="evenodd" clip-rule="evenodd" d="M10 9C8.34315 9 7 10.3431 7 12L6 12C4.89543 12 4 12.8954 4 14V21C4 22.1046 4.89543 23 6 23H7C7 24.6569 8.34315 26 10 26H11C12.6569 26 14 24.6569 14 23V12C14 10.3431 12.6569 9 11 9H10Z" fill="#DBE3E8"/>
<rect x="13" y="15" width="10" height="5" fill="#8F9AAD"/>
<path d="M6 11C6 9.89543 6.89543 9 8 9V24C6.89543 24 6 23.1046 6 22V11Z" fill="#EAF3F9"/>
<path d="M23 12C23 10.8954 23.8954 10 25 10V25C23.8954 25 23 24.1046 23 23V12Z" fill="#EAF3F9"/>
<path fill-rule="evenodd" clip-rule="evenodd" d="M10 10H11C12.1046 10 13 10.8954 13 12V15V16V19V20V23C13 24.1046 12.1046 25 11 25H10C8.89543 25 8 24.1046 8 23V12C8 10.8954 8.89543 10 10 10ZM14 20V23C14 24.6569 12.6569 26 11 26H10C8.34315 26 7 24.6569 7 23H6C4.89543 23 4 22.1046 4 21V19C3.44772 19 3 18.5523 3 18V17C3 16.4477 3.44772 16 4 16V14C4 12.8954 4.89543 12 6 12L7 12C7 10.3431 8.34315 9 10 9H11C12.6569 9 14 10.3431 14 12V15H22V12C22 10.3431 23.3431 9 25 9H26C27.6569 9 29 10.3431 29 12H30C31.1046 12 32 12.8954 32 14V16C32.5523 16 33 16.4477 33 17V18C33 18.5523 32.5523 19 32 19V21C32 22.1046 31.1046 23 30 23H29C29 24.6569 27.6569 26 26 26H25C23.3431 26 22 24.6569 22 23V20H14ZM14 19H22V16H14V19ZM23 19V20V23C23 24.1046 23.8954 25 25 25H26C27.1046 25 28 24.1046 28 23V12C28 10.8954 27.1046 10 26 10H25C23.8954 10 23 10.8954 23 12V15V16V19ZM7 13H6C5.44772 13 5 13.4477 5 14V21C5 21.5523 5.44772 22 6 22H7V13ZM29 22V13H30C30.5523 13 31 13.4477 31 14V21C31 21.5523 30.5523 22 30 22H29Z" fill="black"/>
</svg>
