<svg xmlns="http://www.w3.org/2000/svg" width="36" height="36" viewBox="0 0 36 36">
    <g fill="none" fill-rule="evenodd">
        <path d="M0 0H36V36H0z"/>
        <path fill="#000" fill-rule="nonzero" d="M24.667 4.5C29.269 4.5 33 8.26 33 12.899c0 2.004-.698 3.844-1.86 5.289h2.61c.31 0 .563.251.563.562 0 .276-.2.506-.462.553l-.101.01-3.597-.001-11.312 12.74c-.412.465-1.123.507-1.588.095l-.049-.046-11.358-12.79-3.596.002c-.31 0-.563-.252-.563-.563 0-.276.2-.506.462-.553l.101-.01h2.61C3.697 16.744 3 14.904 3 12.9 3 8.26 6.731 4.5 11.333 4.5 14.06 4.5 16.48 5.82 18 7.859c1.52-2.04 3.94-3.359 6.667-3.359z"/>
        <path fill="#F85B5B" fill-rule="nonzero" d="M14.913 14.18l3.307 9.26.043.093c.196.344.692.377.932.063l.058-.094 2.094-4.19h7.302L18 31.306 7.35 19.312H12l.105-.01c.136-.025.258-.1.343-.211l.055-.09 2.41-4.822zm9.754-8.555c3.979 0 7.208 3.255 7.208 7.274 0 1.695-.576 3.297-1.61 4.582l-.214.252-.404.454H21l-.105.01c-.136.026-.258.102-.343.212l-.055.09-1.661 3.32-3.306-9.258-.043-.094c-.196-.344-.692-.377-.932-.063l-.058.094-2.844 5.689H6.35l-.404-.457-.213-.252c-1.032-1.282-1.608-2.884-1.608-4.58 0-4.018 3.23-7.273 7.208-7.273 2.196 0 4.226.996 5.584 2.673l.181.233.902 1.21.902-1.21.18-.233c1.36-1.677 3.39-2.673 5.585-2.673z"/>
        <circle cx="25.313" cy="11.813" r="2.813" fill="#FFF"/>
    </g>
</svg>
