<svg xmlns="http://www.w3.org/2000/svg" width="36" height="36" viewBox="0 0 36 36">
    <g fill="none" fill-rule="evenodd">
        <path d="M0 0H36V36H0z"/>
        <path fill="#8DDAE4" d="M18 10.125c1.243 0 2.25 1.007 2.25 2.25l.001 2.363c2.567.521 4.499 2.791 4.499 5.512v12.375c0 .621-.504 1.125-1.125 1.125H7.875c-.621 0-1.125-.504-1.125-1.125V20.25c0-2.721 1.932-4.991 4.5-5.512v-2.363c0-1.243 1.007-2.25 2.25-2.25H18z"/>
        <path fill="#FFF" d="M18 11.25h-4.5v-4.5h-1.125c-.577 0-1.052-.434-1.117-.994l-.008-.131v-2.25c0-.577.434-1.052.994-1.117l.131-.008h13.5c1.797 0 3.267 1.405 3.37 3.177l.005.198V9h-4.5V6.75H18v4.5zM16.875 20.25L16.875 23.625 20.25 23.625 20.25 25.875 16.875 25.875 16.875 29.25 14.625 29.25 14.625 25.875 11.25 25.875 11.25 23.625 14.625 23.625 14.625 20.25z"/>
        <path fill="#333" fill-rule="nonzero" d="M25.875 2.25c1.797 0 3.267 1.405 3.37 3.177l.005.198V9h-4.5V6.75H18v3.375c1.243 0 2.25 1.007 2.25 2.25v2.363c1.699.345 3.119 1.454 3.886 2.954l2.783-4.192 3.82 5.75c.381.651.6 1.41.6 2.219 0 2.433-1.978 4.406-4.42 4.406-.788 0-1.528-.206-2.168-.566l-.001 7.316c0 .621-.504 1.125-1.125 1.125H7.875c-.621 0-1.125-.504-1.125-1.125V20.25c0-2.721 1.933-4.992 4.5-5.513v-2.362c0-1.243 1.007-2.25 2.25-2.25V6.75h-1.125c-.577 0-1.052-.434-1.117-.994l-.008-.131v-2.25c0-.577.434-1.052.994-1.117l.131-.008h13.5zm-6.75 13.5h-6.75c-2.41 0-4.377 1.894-4.494 4.275l-.006.225v12.375h15.75v-8.219c-.7-.78-1.125-1.809-1.125-2.937 0-.81.219-1.568.6-2.22l.29-.436c-.576-1.713-2.156-2.965-4.04-3.057l-.225-.006zM18 11.25h-4.5c-.577 0-1.052.434-1.117.994l-.008.131v2.25h6.75v-2.25c0-.577-.434-1.052-.994-1.117L18 11.25zm-5.56-7.877l-.065.002-.002 2.185.002.065h2.25v4.5h2.25v-4.5h9v2.25h2.25V5.657l-.004-.165c-.065-1.129-.961-2.028-2.077-2.11l-.169-.007-13.435-.002z"/>
        <path fill="#FFF" fill-rule="nonzero" d="M26.919 15.533l-2.848 4.286c-.29.496-.446 1.06-.446 1.65 0 1.811 1.474 3.281 3.294 3.281 1.821 0 3.295-1.47 3.295-3.281 0-.505-.114-.992-.309-1.4l-.104-.197-2.882-4.34z"/>
    </g>
</svg>
