<svg width="36" height="36" viewBox="0 0 36 36" fill="none" xmlns="http://www.w3.org/2000/svg">
<rect width="36" height="36" fill="#E5E5E5"/>
<g clip-path="url(#clip0)">
<rect width="1800" height="955" transform="translate(-186 -314)" fill="white"/>
<path fill-rule="evenodd" clip-rule="evenodd" d="M23.0602 33.75C23.1671 33.75 23.274 33.7207 23.3685 33.6577C23.6284 33.4878 23.7004 33.138 23.5305 32.8792C22.7014 31.617 22.3391 30.2208 22.3155 28.2487C23.6812 26.9088 24.9041 25.1201 25.5982 23.2278C28.2555 21.0172 30.3131 17.8593 30.3131 14.3538C30.3131 14.1322 30.2929 13.9162 30.2805 13.6968C32.7262 12.6 34.4205 10.287 34.4205 7.6072C34.4205 7.05145 34.2866 6.55758 34.137 5.99508C34.0763 5.7712 33.885 5.60695 33.6555 5.58108C32.58 5.4607 31.5056 5.59683 30.5168 5.93545C30.2153 4.20183 29.0284 2.60883 27.3577 1.7437C27.1958 1.65933 27.0023 1.65933 26.8391 1.7437C25.8188 2.27245 24.9727 3.08358 24.4013 4.03083C22.5259 2.9047 20.3287 2.2432 17.9696 2.2432C11.1521 2.2432 5.625 7.66458 5.625 14.3538C5.625 17.8593 7.68375 21.0172 10.341 23.2278C11.0362 25.128 12.2681 26.9246 13.6406 28.2667C13.6327 30.24 13.2829 31.6293 12.465 32.8747C12.2951 33.1335 12.3671 33.4833 12.627 33.6532C12.7215 33.7162 12.8284 33.7455 12.9353 33.7455L23.0602 33.75Z" fill="#333333"/>
<path fill-rule="evenodd" clip-rule="evenodd" d="M24.7066 6.35774C25.43 6.73686 26.0803 7.23861 26.6101 7.84836C26.7946 8.06099 26.9623 8.28486 27.1153 8.51661C27.266 8.28711 27.4348 8.06324 27.6204 7.84836C28.1368 7.25211 28.7713 6.76161 29.4733 6.38586C29.47 6.37607 29.4661 6.36652 29.4623 6.35701C29.4543 6.33701 29.4463 6.31721 29.444 6.29586C29.2663 4.92899 28.3786 3.64536 27.0995 2.88599C25.862 3.62286 24.98 4.86374 24.7708 6.18786C24.7606 6.24974 24.7348 6.30486 24.7066 6.35774ZM26.3739 13.2119C23.306 12.8801 20.9199 10.4928 20.9199 7.60719C20.9199 7.29669 20.9874 6.98844 21.0707 6.66894C22.883 6.56882 24.6425 7.29557 25.7597 8.58594C26.0645 8.93694 26.3143 9.32057 26.5055 9.72669C26.0983 10.8393 26.0465 12.0453 26.3739 13.2119ZM27.5616 13.2365C26.9879 11.639 27.3231 9.90989 28.4717 8.58576C29.527 7.36739 31.1616 6.66089 32.8559 6.66089C32.9537 6.66089 33.0527 6.66426 33.1517 6.66876C33.2316 6.98601 33.2957 7.29539 33.2957 7.60701C33.2957 10.5804 30.7622 13.0239 27.5616 13.2365Z" fill="#71C865"/>
<path fill-rule="evenodd" clip-rule="evenodd" d="M20.0497 6.13542C19.9237 6.59555 19.7955 7.07029 19.7955 7.60692C19.7955 9.05142 20.2905 10.3879 21.1275 11.4882C20.1566 12.2408 19.0147 13.0328 17.6895 13.8653C12.8306 16.6598 10.3342 19.1663 10.0957 21.486C9.14287 20.5399 8.38125 19.5094 7.82325 18.4407C7.79175 16.617 9.24412 15.519 10.125 14.8609C10.141 14.8489 10.1567 14.837 10.1723 14.8252C10.3313 14.7054 10.4697 14.601 10.5773 14.5088C11.4919 13.7235 12.0859 12.8753 12.3435 11.9899C12.4313 11.6907 12.2591 11.379 11.961 11.2924C11.6606 11.2047 11.3501 11.3779 11.2646 11.6749C11.0689 12.3477 10.5907 13.0137 9.84375 13.6549C9.74658 13.7382 9.62002 13.8326 9.47464 13.9411L9.45113 13.9587C8.75475 14.4795 7.66125 15.3233 7.08525 16.6092C6.86925 15.8588 6.75 15.1028 6.75 14.3535C6.75 8.29542 11.7832 3.36792 17.9696 3.36792C20.1566 3.36792 22.1929 3.99454 23.9186 5.06104C23.8162 5.34454 23.7296 5.63367 23.6779 5.92729C22.6946 5.59654 21.6304 5.46379 20.5684 5.58079C20.3378 5.60667 20.1465 5.77092 20.0869 5.99479L20.0497 6.13542ZM27.1079 14.3761C27.8268 14.3761 28.5198 14.2737 29.1756 14.0937C29.1766 14.1328 29.1794 14.1713 29.1822 14.2096C29.1857 14.2573 29.1891 14.3049 29.1891 14.3536C29.1891 16.9028 27.8864 19.5364 25.6015 21.7066C25.0683 17.8501 23.149 15.1883 19.873 13.7776C20.602 13.2803 21.2736 12.7966 21.8755 12.3263C21.8563 12.3077 21.8392 12.2872 21.822 12.2667C21.806 12.2475 21.7899 12.2283 21.772 12.2104C23.1074 13.5368 24.9996 14.3761 27.1079 14.3761Z" fill="#FEFEFE"/>
<path fill-rule="evenodd" clip-rule="evenodd" d="M21.3745 21.9287C22.0945 21.9287 22.8156 21.6553 23.3635 21.1074C23.5829 20.8881 23.5829 20.5314 23.3635 20.3121C23.1441 20.0927 22.7875 20.0927 22.5681 20.3121C21.9111 20.9691 20.839 20.9691 20.182 20.3121C19.9626 20.0927 19.606 20.0927 19.3866 20.3121C19.1672 20.5314 19.1672 20.8881 19.3866 21.1074C19.9345 21.6553 20.6556 21.9287 21.3745 21.9287ZM14.6245 21.9287C15.3456 21.9287 16.0656 21.6553 16.6135 21.1074C16.8329 20.8881 16.8329 20.5314 16.6135 20.3121C16.3941 20.0927 16.0375 20.0927 15.8181 20.3121C15.16 20.9691 14.0901 20.9691 13.432 20.3121C13.2126 20.0927 12.856 20.0927 12.6366 20.3121C12.4172 20.5314 12.4172 20.8881 12.6366 21.1074C13.1845 21.6553 13.9045 21.9287 14.6245 21.9287ZM18.5477 14.651C18.6171 14.6062 18.6862 14.5615 18.7566 14.5168C22.3577 15.7768 24.268 18.4498 24.6055 22.6686L24.5413 22.8418C23.9125 24.5575 22.7593 26.2911 21.3756 27.5972C20.1471 28.7593 18.8725 29.4523 17.9691 29.4523C17.0826 29.4523 15.8327 28.7796 14.6233 27.6535C13.2126 26.3383 12.037 24.5845 11.3968 22.8396L11.3507 22.7158L11.2933 22.5572C10.6645 20.4883 13.0697 17.8198 18.2683 14.8296C18.3643 14.7695 18.4562 14.7101 18.5477 14.651ZM17.9694 30.577C18.938 30.577 20.0765 30.0854 21.2432 29.1854C21.3714 30.9011 21.7877 32.2758 22.5898 33.4964C22.6922 33.6528 22.8598 33.7338 23.0319 33.7428H12.9463C13.1252 33.7394 13.2995 33.6539 13.4053 33.4919C14.2119 32.2657 14.6248 30.9427 14.7362 29.2158C15.8893 30.0955 17.0132 30.577 17.9694 30.577Z" fill="#DAB38D"/>
</g>
<defs>
<clipPath id="clip0">
<rect width="1800" height="955" fill="white" transform="translate(-186 -314)"/>
</clipPath>
</defs>
</svg>
